Coordinates
version=1
nRows=32
nColumns=12
inDegrees=yes

Units are S.I. units (second, meters, Newtons, ...)
Angles are in degrees

endheader
time	SC_y	SC_z	SC_x	AC_y	AC_z	AC_x	GH_y	GH_z	GH_yy	EL_x	PS_y
       0.0              -43.18         0.1205          59.01          65.85         -13.53          8.063         -34.43          77.16          162.1          18.94          95.31
   0.00676              -43.18         0.1235          59.01          65.85         -13.53          8.062         -34.42          77.16          162.1          18.94          95.32
   0.01352              -43.19         0.1266          59.02          65.84         -13.53           8.06         -34.41          77.16          162.1          18.95          95.33
   0.02028              -43.19           0.13          59.02          65.84         -13.53          8.059         -34.39          77.16          162.1          18.96          95.33
   0.02704              -43.19         0.1335          59.02          65.83         -13.53          8.058         -34.38          77.16          162.0          18.96          95.34
    0.0338               -43.2         0.1373          59.02          65.83         -13.53          8.056         -34.37          77.16          162.0          18.97          95.35
   0.04056               -43.2         0.1414          59.03          65.83         -13.53          8.055         -34.35          77.16          162.0          18.98          95.36
   0.04732               -43.2         0.1457          59.03          65.82         -13.53          8.053         -34.33          77.16          162.0          18.98          95.37
   0.05408              -43.21         0.1503          59.03          65.82         -13.53          8.051         -34.32          77.16          162.0          18.99          95.39
   0.06084              -43.21         0.1553          59.04          65.81         -13.54          8.049          -34.3          77.16          162.0           19.0           95.4
    0.0676              -43.21         0.1606          59.04           65.8         -13.54          8.047         -34.28          77.16          162.0          19.01          95.41
   0.07436              -43.22         0.1664          59.04           65.8         -13.54          8.045         -34.25          77.16          162.0          19.02          95.43
   0.08113              -43.22         0.1726          59.05          65.79         -13.54          8.043         -34.23          77.17          162.0          19.03          95.44
   0.08789              -43.23         0.1793          59.05          65.78         -13.54           8.04          -34.2          77.17          162.0          19.04          95.46
   0.09465              -43.23         0.1865          59.06          65.78         -13.54          8.037         -34.18          77.17          162.0          19.06          95.48
    0.1014              -43.24         0.1944          59.06          65.77         -13.54          8.034         -34.15          77.17          162.0          19.07           95.5
    0.1082              -43.25         0.2029          59.07          65.76         -13.54          8.031         -34.11          77.17          162.0          19.09          95.52
    0.1149              -43.25         0.2122          59.07          65.75         -13.55          8.027         -34.08          77.17          162.0           19.1          95.54
    0.1217              -43.26         0.2224          59.08          65.74         -13.55          8.023         -34.04          77.17          162.0          19.12          95.57
    0.1284              -43.27         0.2335          59.09          65.72         -13.55          8.019         -33.99          77.17          162.0          19.14           95.6
    0.1352              -43.28         0.2457          59.09          65.71         -13.55          8.014         -33.95          77.17          162.0          19.17          95.63
     0.142              -43.29         0.2591           59.1           65.7         -13.55          8.009          -33.9          77.17          162.0          19.19          95.66
    0.1487               -43.3          0.274          59.11          65.68         -13.56          8.003         -33.84          77.18          162.0          19.22           95.7
    0.1555              -43.32         0.2904          59.12          65.66         -13.56          7.997         -33.78          77.18          161.9          19.25          95.74
    0.1623              -43.33         0.3087          59.13          65.64         -13.56           7.99          -33.7          77.18          161.9          19.28          95.79
     0.169              -43.35         0.3291          59.15          65.62         -13.57          7.982         -33.63          77.18          161.9          19.32          95.84
    0.1758              -43.36         0.3519          59.16          65.59         -13.57          7.973         -33.54          77.18          161.9          19.36           95.9
    0.1825              -43.38         0.3776          59.18          65.57         -13.57          7.963         -33.44          77.19          161.9           19.4          95.96
    0.1893              -43.41         0.4067           59.2          65.53         -13.58          7.952         -33.33          77.19          161.9          19.46          96.03
    0.1961              -43.43         0.4396          59.22           65.5         -13.58          7.939          -33.2          77.19          161.8          19.52          96.12
    0.2028              -43.46         0.4773          59.24          65.46         -13.59          7.925         -33.05           77.2          161.8          19.58          96.21
    0.2096               -43.5         0.5205          59.27          65.41          -13.6          7.908         -32.89           77.2          161.8          19.66          96.32
